<svg xmlns="http://www.w3.org/2000/svg" xmlns:xlink="http://www.w3.org/1999/xlink" version="1.1" x="0px" y="0px" viewBox="0 0 65 81.25" enable-background="new 0 0 65 65" xml:space="preserve"><g><path fill="none" stroke="#000000" stroke-width="2" stroke-linejoin="round" stroke-miterlimit="10" d="M43.6,27.5   c4.7-1.4,14.3-8.1,14.3-16.7c0-3.7-3-6.7-6.7-6.7c-0.6,0-1.1,0.1-1.6,0.2"/><path fill="none" stroke="#000000" stroke-width="2" stroke-linejoin="round" stroke-miterlimit="10" d="M15.5,4.3   c-0.5-0.1-1.1-0.2-1.6-0.2c-3.7,0-6.7,3-6.7,6.7c0,8.7,9.6,15.4,14.3,16.7"/><path fill="none" stroke="#000000" stroke-width="2" stroke-linejoin="round" stroke-miterlimit="10" d="M29,42.5   c1-0.2,2.2-0.4,3.5-0.4c1.2,0,2.4,0.1,3.5,0.4v-3.8H29V42.5z"/><polygon fill="none" stroke="#000000" stroke-width="2" stroke-linejoin="round" stroke-miterlimit="10" points="19,59.8 19,63.5    46,63.5 46,59.8 44.3,59.8 20.7,59.8  "/><polygon fill="none" stroke="#000000" stroke-width="2" stroke-linejoin="round" stroke-miterlimit="10" points="29,45.7    24.5,45.7 20.7,45.7 20.7,59.8 44.3,59.8 44.3,45.7 40.5,45.7 36,45.7  "/><rect x="24.7" y="49.7" fill="none" stroke="#000000" stroke-width="2" stroke-linejoin="round" stroke-miterlimit="10" width="15.5" height="6.1"/><path fill="none" stroke="#000000" stroke-width="2" stroke-linejoin="round" stroke-miterlimit="10" d="M29,34.4H36h1.2   c0,0,0,0,0,0.1c2.4-1.3,4.6-3.7,6.5-6.9c0.4-0.7,0.8-1.5,1.2-2.2c2.5-5.1,4.2-11.8,4.7-19.2c0-0.6,0.1-1.2,0.1-1.8   c0-0.7,0.1-1.4,0.1-2.1c0-0.4-0.3-0.7-0.7-0.7H16.1c-0.4,0-0.7,0.3-0.7,0.7c0,0.7,0,1.4,0.1,2.1c0,0.6,0.1,1.2,0.1,1.8   c0.5,7.4,2.2,14.1,4.7,19.2c0.4,0.8,0.8,1.5,1.2,2.2c1.9,3.1,4,5.5,6.5,6.9c0,0,0,0,0-0.1H29z"/><path fill="none" stroke="#000000" stroke-width="2" stroke-linejoin="round" stroke-miterlimit="10" d="M36.3,29.3   c1.4-1,2.9-2.7,4.1-4.8c0.4-0.6,0.7-1.2,1-1.9c2.2-4.5,3.6-10.5,4.1-16.8c0-0.3,0-0.6,0.1-0.9"/><path fill="none" stroke="#000000" stroke-width="2" stroke-linejoin="round" stroke-miterlimit="10" d="M29,34.4   c-0.5,0-0.9,1.8-0.9,2.3s0.4,2.1,0.9,2.1h0H36h0c0.5,0,0.8-1.6,0.8-2.1s-0.4-2.3-0.8-2.3h0H29L29,34.4z"/><path fill="none" stroke="#000000" stroke-width="2" stroke-linejoin="round" stroke-miterlimit="10" d="M29,42.5   c-2.7,0.6-4.5,1.8-4.5,3.2H29H36h4.5c0-1.4-1.8-2.6-4.5-3.2c-1-0.2-2.2-0.4-3.5-0.4C31.3,42.2,30.1,42.3,29,42.5z"/></g><text x="0" y="80" fill="#000000" font-size="5px" font-weight="bold" font-family="'Helvetica Neue', Helvetica, Arial-Unicode, Arial, Sans-serif">Created by Dinosoft Labs</text><text x="0" y="85" fill="#000000" font-size="5px" font-weight="bold" font-family="'Helvetica Neue', Helvetica, Arial-Unicode, Arial, Sans-serif">from the Noun Project</text></svg>