<?xml version="1.0" encoding="UTF-8" standalone="no"?>
<svg
   xmlns:dc="http://purl.org/dc/elements/1.1/"
   xmlns:cc="http://creativecommons.org/ns#"
   xmlns:rdf="http://www.w3.org/1999/02/22-rdf-syntax-ns#"
   xmlns:svg="http://www.w3.org/2000/svg"
   xmlns="http://www.w3.org/2000/svg"
   xmlns:sodipodi="http://sodipodi.sourceforge.net/DTD/sodipodi-0.dtd"
   xmlns:inkscape="http://www.inkscape.org/namespaces/inkscape"
   version="1.1"
   x="0px"
   y="0px"
   viewBox="0 0 65 81.25"
   enable-background="new 0 0 65 65"
   xml:space="preserve"
   id="svg3759"
   sodipodi:docname="prize_icon_2.svg"
   inkscape:version="0.92.2 (5c3e80d, 2017-08-06)"><metadata
     id="metadata3765"><rdf:RDF><cc:Work
         rdf:about=""><dc:format>image/svg+xml</dc:format><dc:type
           rdf:resource="http://purl.org/dc/dcmitype/StillImage" /></cc:Work></rdf:RDF></metadata><defs
     id="defs3763" /><sodipodi:namedview
     pagecolor="#ffffff"
     bordercolor="#666666"
     borderopacity="1"
     objecttolerance="10"
     gridtolerance="10"
     guidetolerance="10"
     inkscape:pageopacity="0"
     inkscape:pageshadow="2"
     inkscape:window-width="1920"
     inkscape:window-height="986"
     id="namedview3761"
     showgrid="false"
     inkscape:zoom="9.3907692"
     inkscape:cx="32.5"
     inkscape:cy="39.404555"
     inkscape:window-x="-11"
     inkscape:window-y="-11"
     inkscape:window-maximized="1"
     inkscape:current-layer="svg3759" /><g
     id="g3753"><path
       fill="none"
       stroke="#FFFFFF"
       stroke-width="2"
       stroke-linejoin="round"
       stroke-miterlimit="10"
       d="M43.6,27.5   c4.7-1.4,14.3-8.1,14.3-16.7c0-3.7-3-6.7-6.7-6.7c-0.6,0-1.1,0.1-1.6,0.2"
       id="path3733" /><path
       fill="none"
       stroke="#FFFFFF"
       stroke-width="2"
       stroke-linejoin="round"
       stroke-miterlimit="10"
       d="M15.5,4.3   c-0.5-0.1-1.1-0.2-1.6-0.2c-3.7,0-6.7,3-6.7,6.7c0,8.7,9.6,15.4,14.3,16.7"
       id="path3735" /><path
       fill="none"
       stroke="#FFFFFF"
       stroke-width="2"
       stroke-linejoin="round"
       stroke-miterlimit="10"
       d="M29,42.5   c1-0.2,2.2-0.4,3.5-0.4c1.2,0,2.4,0.1,3.5,0.4v-3.8H29V42.5z"
       id="path3737" /><polygon
       fill="none"
       stroke="#FFFFFF"
       stroke-width="2"
       stroke-linejoin="round"
       stroke-miterlimit="10"
       points="19,59.8 19,63.5    46,63.5 46,59.8 44.3,59.8 20.7,59.8  "
       id="polygon3739" /><polygon
       fill="none"
       stroke="#FFFFFF"
       stroke-width="2"
       stroke-linejoin="round"
       stroke-miterlimit="10"
       points="29,45.7    24.5,45.7 20.7,45.7 20.7,59.8 44.3,59.8 44.3,45.7 40.5,45.7 36,45.7  "
       id="polygon3741" /><rect
       x="24.7"
       y="49.7"
       fill="none"
       stroke="#FFFFFF"
       stroke-width="2"
       stroke-linejoin="round"
       stroke-miterlimit="10"
       width="15.5"
       height="6.1"
       id="rect3743" /><path
       fill="none"
       stroke="#FFFFFF"
       stroke-width="2"
       stroke-linejoin="round"
       stroke-miterlimit="10"
       d="M29,34.4H36h1.2   c0,0,0,0,0,0.1c2.4-1.3,4.6-3.7,6.5-6.9c0.4-0.7,0.8-1.5,1.2-2.2c2.5-5.1,4.2-11.8,4.7-19.2c0-0.6,0.1-1.2,0.1-1.8   c0-0.7,0.1-1.4,0.1-2.1c0-0.4-0.3-0.7-0.7-0.7H16.1c-0.4,0-0.7,0.3-0.7,0.7c0,0.7,0,1.4,0.1,2.1c0,0.6,0.1,1.2,0.1,1.8   c0.5,7.4,2.2,14.1,4.7,19.2c0.4,0.8,0.8,1.5,1.2,2.2c1.9,3.1,4,5.5,6.5,6.9c0,0,0,0,0-0.1H29z"
       id="path3745" /><path
       fill="none"
       stroke="#FFFFFF"
       stroke-width="2"
       stroke-linejoin="round"
       stroke-miterlimit="10"
       d="M36.3,29.3   c1.4-1,2.9-2.7,4.1-4.8c0.4-0.6,0.7-1.2,1-1.9c2.2-4.5,3.6-10.5,4.1-16.8c0-0.3,0-0.6,0.1-0.9"
       id="path3747" /><path
       fill="none"
       stroke="#FFFFFF"
       stroke-width="2"
       stroke-linejoin="round"
       stroke-miterlimit="10"
       d="M29,34.4   c-0.5,0-0.9,1.8-0.9,2.3s0.4,2.1,0.9,2.1h0H36h0c0.5,0,0.8-1.6,0.8-2.1s-0.4-2.3-0.8-2.3h0H29L29,34.4z"
       id="path3749" /><path
       fill="none"
       stroke="#FFFFFF"
       stroke-width="2"
       stroke-linejoin="round"
       stroke-miterlimit="10"
       d="M29,42.5   c-2.7,0.6-4.5,1.8-4.5,3.2H29H36h4.5c0-1.4-1.8-2.6-4.5-3.2c-1-0.2-2.2-0.4-3.5-0.4C31.3,42.2,30.1,42.3,29,42.5z"
       id="path3751" /></g></svg>
